<?xml version="1.0" standalone="no"?>
<!DOCTYPE svg PUBLIC "-//W3C//DTD SVG 20010904//EN"
 "http://www.w3.org/TR/2001/REC-SVG-20010904/DTD/svg10.dtd">
<svg version="1.0" xmlns="http://www.w3.org/2000/svg"
 width="700.000000pt" height="700.000000pt" viewBox="0 0 700.000000 700.000000"
 preserveAspectRatio="xMidYMid meet">
<metadata>
Created by potrace 1.14, written by Peter Selinger 2001-2017
</metadata>
<g transform="translate(0.000000,700.000000) scale(0.100000,-0.100000)"
fill="#000000" stroke="none">
<path d="M500 5770 l0 -170 785 0 785 0 0 170 0 170 -785 0 -785 0 0 -170z"/>
<path d="M500 5105 l0 -85 445 0 445 0 0 85 0 85 -445 0 -445 0 0 -85z"/>
<path d="M1752 5108 l3 -83 788 -3 787 -2 0 85 0 85 -790 0 -791 0 3 -82z"/>
<path d="M500 4595 l0 -85 865 0 865 0 0 85 0 85 -865 0 -865 0 0 -85z"/>
<path d="M2570 4595 l0 -85 495 0 495 0 0 85 0 85 -495 0 -495 0 0 -85z"/>
<path d="M3996 4310 c-198 -70 -316 -235 -316 -442 0 -142 61 -269 173 -359
80 -64 151 -91 260 -97 112 -6 196 15 278 70 l58 39 513 -397 c282 -218 515
-398 517 -400 3 -3 -4 -30 -14 -62 -11 -36 -18 -88 -18 -139 l0 -83 -462 0
c-254 0 -563 3 -686 7 l-224 6 -25 56 c-31 72 -135 177 -211 213 -186 89 -383
55 -530 -91 -91 -92 -139 -203 -139 -324 l0 -43 -117 -22 c-65 -13 -334 -65
-598 -117 -264 -52 -498 -97 -520 -100 l-40 -5 -29 60 c-75 155 -276 265 -448
246 -168 -19 -301 -113 -376 -265 -36 -74 -37 -77 -37 -195 0 -119 1 -122 37
-199 61 -128 168 -216 303 -252 268 -69 539 117 573 394 l7 56 642 125 642
126 39 -62 c22 -34 63 -79 90 -101 28 -21 51 -42 51 -46 1 -4 -187 -221 -416
-480 -230 -260 -437 -495 -459 -521 l-42 -49 -68 29 c-61 25 -82 28 -175 29
-104 0 -106 0 -191 -42 -242 -120 -335 -387 -218 -629 38 -77 122 -159 208
-201 71 -35 82 -38 184 -42 94 -3 118 0 171 19 150 55 264 182 297 331 7 32
11 93 8 141 -4 84 -30 156 -84 240 l-18 26 65 72 c35 40 251 285 479 544 l416
471 84 1 c236 4 415 153 460 382 l13 62 701 0 702 0 34 -45 c52 -69 120 -119
210 -152 256 -95 535 54 605 324 53 205 -55 433 -249 524 -164 77 -338 58
-483 -52 -34 -25 -58 -37 -66 -32 -8 4 -239 183 -515 396 l-500 388 25 56 c38
83 44 217 14 310 -42 129 -151 248 -271 295 -82 32 -235 36 -314 8z m266 -178
c63 -28 123 -92 149 -160 52 -139 -15 -302 -151 -366 -65 -30 -178 -29 -241 2
-132 65 -195 207 -154 347 22 76 107 166 181 189 63 20 156 15 216 -12z m1738
-1334 c54 -17 115 -63 148 -114 98 -147 41 -344 -122 -420 -73 -34 -173 -33
-244 2 -109 54 -169 160 -160 283 6 76 25 120 77 174 80 85 183 110 301 75z
m-4413 -674 c172 -82 217 -309 88 -452 -137 -153 -380 -122 -478 61 -30 57
-32 203 -3 257 78 147 245 204 393 134z"/>
<path d="M500 3890 l0 -170 785 0 785 0 0 170 0 170 -785 0 -785 0 0 -170z"/>
</g>
</svg>
