<?xml version="1.0" encoding="UTF-8" standalone="no"?>
<!-- Created with Inkscape (http://www.inkscape.org/) -->

<svg
   width="100"
   height="100"
   viewBox="0 0 26.458333 26.458334"
   version="1.1"
   id="svg5"
   inkscape:version="1.1.1 (3bf5ae0d25, 2021-09-20)"
   sodipodi:docname="favicon.svg"
   xmlns:inkscape="http://www.inkscape.org/namespaces/inkscape"
   xmlns:sodipodi="http://sodipodi.sourceforge.net/DTD/sodipodi-0.dtd"
   xmlns="http://www.w3.org/2000/svg"
   xmlns:svg="http://www.w3.org/2000/svg">
  <sodipodi:namedview
     id="namedview7"
     pagecolor="#ffffff"
     bordercolor="#666666"
     borderopacity="1.0"
     inkscape:pageshadow="2"
     inkscape:pageopacity="0.0"
     inkscape:pagecheckerboard="0"
     inkscape:document-units="mm"
     showgrid="false"
     showguides="false"
     inkscape:guide-bbox="true"
     inkscape:zoom="4"
     inkscape:cx="138.125"
     inkscape:cy="110.875"
     inkscape:window-width="2560"
     inkscape:window-height="1376"
     inkscape:window-x="1440"
     inkscape:window-y="505"
     inkscape:window-maximized="1"
     inkscape:current-layer="layer1"
     units="px"
     height="1122.5196px">
    <sodipodi:guide
       position="67.377016,140.49919"
       orientation="0,-1"
       id="guide114451" />
    <sodipodi:guide
       position="69.177491,133.61952"
       orientation="0,-1"
       id="guide114453" />
  </sodipodi:namedview>
  <defs
     id="defs2" />
  <g
     inkscape:label="Layer 1"
     inkscape:groupmode="layer"
     id="layer1">
    <rect
       style="fill:#d2d1cb;fill-opacity:1;stroke-width:3.64229"
       id="rect99565"
       width="15.098985"
       height="21.949545"
       x="1.4147598"
       y="1.118698"
       rx="0.6424529"
       ry="0.6424529" />
    <rect
       style="opacity:1;fill:#ffdf62;fill-opacity:1;stroke-width:3.64229"
       id="rect99571"
       width="14.986877"
       height="21.94956"
       x="0.11283279"
       y="0.05736706"
       rx="0.6424529"
       ry="0.64164746" />
    <rect
       style="fill:#ff6600;stroke-width:3.20093"
       id="rect99573"
       width="5.95367"
       height="1.3064971"
       x="1.8725438"
       y="3.998765" />
    <rect
       style="fill:#71c837;stroke-width:2.62341"
       id="rect99575"
       width="3.9990783"
       height="1.3064971"
       x="9.1616602"
       y="3.998765" />
    <rect
       style="fill:#5d6c53;stroke-width:1.67635"
       id="rect99577"
       width="3.3765781"
       height="0.63181728"
       x="1.8725438"
       y="6.8442516" />
    <rect
       style="fill:#5d6c53;stroke-width:2.22597"
       id="rect99579"
       width="5.95367"
       height="0.63181728"
       x="6.6295156"
       y="6.8442516" />
    <rect
       style="fill:#5d6c53;stroke-width:2.33758"
       id="rect99581"
       width="6.565722"
       height="0.63181728"
       x="1.8725438"
       y="8.7704401" />
    <rect
       style="fill:#5d6c53;stroke-width:1.76468"
       id="rect99583"
       width="3.7417653"
       height="0.63181728"
       x="9.7236395"
       y="8.7704401" />
    <rect
       style="fill:#88aa00;stroke-width:3.20093"
       id="rect99585"
       width="5.95367"
       height="1.3064971"
       x="1.8725438"
       y="11.097411" />
    <g
       id="g99599"
       transform="matrix(2.0791357,0,0,2.0791357,-62.855139,-250.39044)">
      <path
         style="fill:#454837;fill-opacity:1;stroke-width:1.64385"
         d="m 33.745655,132.97127 a 0.84168971,0.84168971 0 0 0 1.09802,-0.0116 0.84168971,0.84168971 0 0 0 0.08508,-1.17729 l 1.758072,-1.99332 a 0.84168971,0.84168971 0 0 0 0.707377,-0.19572 0.84168971,0.84168971 0 0 0 0.285518,-0.60648 l 2.567435,0.009 a 0.84168971,0.84168971 0 0 0 0.613044,0.40289 0.84168971,0.84168971 0 0 0 0.944029,-0.72477 0.84168971,0.84168971 0 0 0 -0.724769,-0.94403 0.84168971,0.84168971 0 0 0 -0.719942,0.25509 l -1.870929,-1.44783 a 0.84168971,0.84168971 0 0 0 0.104018,-0.30777 0.84168971,0.84168971 0 0 0 -0.724996,-0.94376 0.84168971,0.84168971 0 0 0 -0.944037,0.72478 0.84168971,0.84168971 0 0 0 0.725058,0.94426 0.84168971,0.84168971 0 0 0 0.665461,-0.20351 l 1.890679,1.46244 a 0.84168971,0.84168971 0 0 0 -0.06938,0.24113 0.84168971,0.84168971 0 0 0 0.0077,0.26514 l -2.501699,-0.009 a 0.84168971,0.84168971 0 0 0 -0.170686,-0.30551 0.84168971,0.84168971 0 0 0 -1.187916,-0.0764 0.84168971,0.84168971 0 0 0 -0.2818,0.70953 l -2.322163,0.45401 a 0.84168971,0.84168971 0 0 0 -0.162912,-0.28118 0.84168971,0.84168971 0 0 0 -1.187911,-0.0764 0.84168971,0.84168971 0 0 0 -0.07649,1.18791 0.84168971,0.84168971 0 0 0 1.187915,0.0764 0.84168971,0.84168971 0 0 0 0.285543,-0.63473 l 2.345507,-0.45884 a 0.84168971,0.84168971 0 0 1 2.81e-4,2.3e-4 0.84168971,0.84168971 0 0 0 0.135552,0.21096 0.84168971,0.84168971 0 0 0 0.204536,0.16842 l -1.692475,1.9187 a 0.84168971,0.84168971 0 0 0 -0.985946,0.0911 0.84168971,0.84168971 0 0 0 -0.07649,1.18793 0.84168971,0.84168971 0 0 0 0.08987,0.0881 z"
         id="path99587" />
      <path
         style="fill:#71c837;fill-opacity:1;stroke-width:1.64385"
         d="m 40.644256,128.98902 a 0.53497719,0.53497719 0 0 1 -0.204714,-0.4941 0.53497719,0.53497719 0 0 1 0.599886,-0.46057 0.53497719,0.53497719 0 0 1 0.460564,0.5999 0.53497719,0.53497719 0 0 1 -0.599881,0.46055 0.53497719,0.53497719 0 0 1 -0.255871,-0.10578 z"
         id="path99589" />
      <path
         style="fill:#71c837;fill-opacity:1;stroke-width:1.64385"
         d="m 37.432424,126.54474 a 0.53497719,0.53497719 0 0 1 -0.204708,-0.49411 0.53497719,0.53497719 0 0 1 0.600113,-0.46085 0.53497719,0.53497719 0 0 1 0.460845,0.60012 0.53497719,0.53497719 0 0 1 -0.600113,0.46085 0.53497719,0.53497719 0 0 1 -0.256152,-0.10602 z"
         id="path99591" />
      <path
         style="fill:#ff6600;fill-opacity:1;stroke-width:1.64385"
         d="m 36.493808,129.37016 a 0.53497719,0.53497719 0 0 1 -0.05686,-0.056 0.53497719,0.53497719 0 0 1 0.04861,-0.75539 0.53497719,0.53497719 0 0 1 0.754894,0.0487 0.53497719,0.53497719 0 0 1 -0.04839,0.75511 0.53497719,0.53497719 0 0 1 -0.698007,0.007 z"
         id="path99593" />
      <path
         style="fill:#ffcc00;fill-opacity:1;stroke-width:1.64385"
         d="m 32.539021,130.17605 a 0.53497719,0.53497719 0 0 1 -0.05686,-0.056 0.53497719,0.53497719 0 0 1 0.04867,-0.75489 0.53497719,0.53497719 0 0 1 0.755114,0.0484 0.53497719,0.53497719 0 0 1 -0.0489,0.75516 0.53497719,0.53497719 0 0 1 -0.697779,0.007 z"
         id="path99595" />
      <path
         style="fill:#88aa00;fill-opacity:1;stroke-width:1.64385"
         d="m 33.943051,132.73678 a 0.53497719,0.53497719 0 0 1 -0.05686,-0.056 0.53497719,0.53497719 0 0 1 0.04839,-0.75512 0.53497719,0.53497719 0 0 1 0.755169,0.0489 0.53497719,0.53497719 0 0 1 -0.04868,0.7549 0.53497719,0.53497719 0 0 1 -0.697996,0.007 z"
         id="path99597" />
    </g>
  </g>
</svg>
